<svg xmlns="http://www.w3.org/2000/svg" viewBox="0 0 280 280">
  <rect width="280" height="280" fill="#fff"/>
  <defs>
    <marker id="arrow" markerWidth="6" markerHeight="5" refX="5" refY="2.5" orient="auto">
      <polygon points="0 0, 6 2.5, 0 5" fill="#999"/>
    </marker>
  </defs>

  <!-- Stage 1 -->
  <rect x="65" y="10" width="150" height="24" rx="3" fill="#f5f5f5" stroke="#ccc" stroke-width="1"/>
  <text x="140" y="26" text-anchor="middle" font-family="Helvetica Neue, Arial, sans-serif" font-size="9" fill="#333">Read information sheet</text>
  <line x1="140" y1="34" x2="140" y2="44" stroke="#999" stroke-width="1" marker-end="url(#arrow)"/>

  <!-- Stage 2 -->
  <rect x="65" y="50" width="150" height="24" rx="3" fill="#f5f5f5" stroke="#ccc" stroke-width="1"/>
  <text x="140" y="66" text-anchor="middle" font-family="Helvetica Neue, Arial, sans-serif" font-size="9" fill="#333">Read instructions</text>
  <line x1="140" y1="74" x2="140" y2="84" stroke="#999" stroke-width="1" marker-end="url(#arrow)"/>

  <!-- Stage 3 -->
  <rect x="65" y="90" width="150" height="24" rx="3" fill="#f5f5f5" stroke="#ccc" stroke-width="1"/>
  <text x="140" y="106" text-anchor="middle" font-family="Helvetica Neue, Arial, sans-serif" font-size="9" fill="#333">Enter Prolific ID</text>
  <line x1="140" y1="114" x2="140" y2="124" stroke="#999" stroke-width="1" marker-end="url(#arrow)"/>

  <!-- Stage 4 -->
  <rect x="65" y="130" width="150" height="24" rx="3" fill="#f5f5f5" stroke="#ccc" stroke-width="1"/>
  <text x="140" y="146" text-anchor="middle" font-family="Helvetica Neue, Arial, sans-serif" font-size="9" fill="#333">Complete comprehension check</text>
  <line x1="140" y1="154" x2="140" y2="164" stroke="#999" stroke-width="1" marker-end="url(#arrow)"/>

  <!-- Recruited count -->
  <text x="140" y="178" text-anchor="middle" font-family="Helvetica Neue, Arial, sans-serif" font-size="8" fill="#666">n=80 recruited</text>

  <!-- Fork arrows with 50% labels -->
  <line x1="100" y1="182" x2="70" y2="198" stroke="#999" stroke-width="1" marker-end="url(#arrow)"/>
  <line x1="180" y1="182" x2="210" y2="198" stroke="#999" stroke-width="1" marker-end="url(#arrow)"/>
  <text x="58" y="188" text-anchor="middle" font-family="Helvetica Neue, Arial, sans-serif" font-size="7" fill="#888">50%</text>
  <text x="222" y="188" text-anchor="middle" font-family="Helvetica Neue, Arial, sans-serif" font-size="7" fill="#888">50%</text>

  <!-- Conditions -->
  <rect x="10" y="204" width="120" height="36" rx="3" fill="#fce4e4" stroke="#d64550" stroke-width="1.5"/>
  <text x="70" y="216" text-anchor="middle" font-family="Helvetica Neue, Arial, sans-serif" font-size="8" fill="#333">Shop with</text>
  <text x="70" y="226" text-anchor="middle" font-family="Helvetica Neue, Arial, sans-serif" font-size="8" font-weight="500" fill="#d64550">upselling assistant</text>
  <text x="70" y="237" text-anchor="middle" font-family="Helvetica Neue, Arial, sans-serif" font-size="7" fill="#888">(5 min)</text>

  <rect x="150" y="204" width="120" height="36" rx="3" fill="#e4f0f5" stroke="#4a90a4" stroke-width="1.5"/>
  <text x="210" y="216" text-anchor="middle" font-family="Helvetica Neue, Arial, sans-serif" font-size="8" fill="#333">Shop with</text>
  <text x="210" y="226" text-anchor="middle" font-family="Helvetica Neue, Arial, sans-serif" font-size="8" font-weight="500" fill="#4a90a4">helpful assistant</text>
  <text x="210" y="237" text-anchor="middle" font-family="Helvetica Neue, Arial, sans-serif" font-size="7" fill="#888">(5 min)</text>

  <line x1="70" y1="240" x2="95" y2="250" stroke="#999" stroke-width="1" marker-end="url(#arrow)"/>
  <line x1="210" y1="240" x2="185" y2="250" stroke="#999" stroke-width="1" marker-end="url(#arrow)"/>

  <!-- Stage 6 -->
  <rect x="40" y="256" width="200" height="24" rx="3" fill="#f5f5f5" stroke="#ccc" stroke-width="1"/>
  <text x="140" y="272" text-anchor="middle" font-family="Helvetica Neue, Arial, sans-serif" font-size="9" fill="#333">Report perceptions of assistant</text>
</svg>
